<?xml version="1.0" encoding="UTF-8" standalone="no"?>
<!DOCTYPE svg PUBLIC "-//W3C//DTD SVG 1.1//EN"
 "http://www.w3.org/Graphics/SVG/1.1/DTD/svg11.dtd">
<!-- Generated by graphviz version 2.43.0 (0)
 -->
<!-- Title: pastafarianism Pages: 1 -->
<svg width="752pt" height="476pt"
 viewBox="0.00 0.00 752.15 476.00" xmlns="http://www.w3.org/2000/svg" xmlns:xlink="http://www.w3.org/1999/xlink">
<g id="graph0" class="graph" transform="scale(1 1) rotate(0) translate(4 472)">
<title>pastafarianism</title>
<polygon fill="white" stroke="transparent" points="-4,4 -4,-472 748.15,-472 748.15,4 -4,4"/>
<!-- AirTreeFall -->
<g id="node1" class="node">
<title>AirTreeFall</title>
<polygon fill="cyan" stroke="black" points="254.54,-442.54 254.54,-457.46 229.21,-468 193.39,-468 168.06,-457.46 168.06,-442.54 193.39,-432 229.21,-432 254.54,-442.54"/>
<text text-anchor="middle" x="211.3" y="-447.8" font-family="Times,serif" font-size="9.00">AirTreeFall</text>
</g>
<!-- ReachFinalGoal? -->
<g id="node2" class="node">
<title>ReachFinalGoal?</title>
<ellipse fill="gray" stroke="black" cx="161.3" cy="-378" rx="54.04" ry="18"/>
<text text-anchor="middle" x="161.3" y="-375.8" font-family="Times,serif" font-size="9.00">ReachFinalGoal?</text>
</g>
<!-- AirTreeFall&#45;&gt;ReachFinalGoal? -->
<g id="edge1" class="edge">
<title>AirTreeFall&#45;&gt;ReachFinalGoal?</title>
<path fill="none" stroke="black" d="M198.94,-431.7C192.98,-423.35 185.72,-413.18 179.17,-404.02"/>
<polygon fill="black" stroke="black" points="181.83,-401.73 173.17,-395.62 176.14,-405.79 181.83,-401.73"/>
</g>
<!-- ExecSeq -->
<g id="node3" class="node">
<title>ExecSeq</title>
<polygon fill="orange" stroke="black" points="289.3,-396 233.3,-396 233.3,-360 289.3,-360 289.3,-396"/>
<text text-anchor="middle" x="261.3" y="-375.8" font-family="Times,serif" font-size="9.00">ExecSeq</text>
</g>
<!-- AirTreeFall&#45;&gt;ExecSeq -->
<g id="edge2" class="edge">
<title>AirTreeFall&#45;&gt;ExecSeq</title>
<path fill="none" stroke="black" d="M223.66,-431.7C229.53,-423.47 236.67,-413.48 243.14,-404.42"/>
<polygon fill="black" stroke="black" points="246.12,-406.28 249.08,-396.1 240.42,-402.21 246.12,-406.28"/>
</g>
<!-- GoalChgFall -->
<g id="node4" class="node">
<title>GoalChgFall</title>
<polygon fill="cyan" stroke="black" points="219.79,-298.54 219.79,-313.46 192.56,-324 154.04,-324 126.81,-313.46 126.81,-298.54 154.04,-288 192.56,-288 219.79,-298.54"/>
<text text-anchor="middle" x="173.3" y="-303.8" font-family="Times,serif" font-size="9.00">GoalChgFall</text>
</g>
<!-- ExecSeq&#45;&gt;GoalChgFall -->
<g id="edge3" class="edge">
<title>ExecSeq&#45;&gt;GoalChgFall</title>
<path fill="none" stroke="black" d="M239.55,-359.7C228.3,-350.75 214.42,-339.71 202.27,-330.05"/>
<polygon fill="black" stroke="black" points="204.2,-327.11 194.2,-323.62 199.85,-332.59 204.2,-327.11"/>
</g>
<!-- GoalLoopFall -->
<g id="node9" class="node">
<title>GoalLoopFall</title>
<polygon fill="cyan" stroke="black" points="396.54,-298.54 396.54,-313.46 368.28,-324 328.32,-324 300.06,-313.46 300.06,-298.54 328.32,-288 368.28,-288 396.54,-298.54"/>
<text text-anchor="middle" x="348.3" y="-303.8" font-family="Times,serif" font-size="9.00">GoalLoopFall</text>
</g>
<!-- ExecSeq&#45;&gt;GoalLoopFall -->
<g id="edge8" class="edge">
<title>ExecSeq&#45;&gt;GoalLoopFall</title>
<path fill="none" stroke="black" d="M282.81,-359.7C293.85,-350.81 307.45,-339.87 319.39,-330.26"/>
<polygon fill="black" stroke="black" points="321.75,-332.86 327.34,-323.86 317.36,-327.4 321.75,-332.86"/>
</g>
<!-- NotChangeGoal? -->
<g id="node5" class="node">
<title>NotChangeGoal?</title>
<ellipse fill="gray" stroke="black" cx="63.3" cy="-234" rx="54.7" ry="18"/>
<text text-anchor="middle" x="63.3" y="-231.8" font-family="Times,serif" font-size="9.00">NotChangeGoal?</text>
</g>
<!-- GoalChgFall&#45;&gt;NotChangeGoal? -->
<g id="edge4" class="edge">
<title>GoalChgFall&#45;&gt;NotChangeGoal?</title>
<path fill="none" stroke="black" d="M149.16,-289.64C133.54,-279.7 113.02,-266.64 95.95,-255.78"/>
<polygon fill="black" stroke="black" points="97.7,-252.74 87.38,-250.33 93.94,-258.65 97.7,-252.74"/>
</g>
<!-- ChgGoalSeq -->
<g id="node6" class="node">
<title>ChgGoalSeq</title>
<polygon fill="orange" stroke="black" points="210.3,-252 136.3,-252 136.3,-216 210.3,-216 210.3,-252"/>
<text text-anchor="middle" x="173.3" y="-231.8" font-family="Times,serif" font-size="9.00">ChgGoalSeq</text>
</g>
<!-- GoalChgFall&#45;&gt;ChgGoalSeq -->
<g id="edge5" class="edge">
<title>GoalChgFall&#45;&gt;ChgGoalSeq</title>
<path fill="none" stroke="black" d="M173.3,-287.7C173.3,-279.98 173.3,-270.71 173.3,-262.11"/>
<polygon fill="black" stroke="black" points="176.8,-262.1 173.3,-252.1 169.8,-262.1 176.8,-262.1"/>
</g>
<!-- UpdateGoal! -->
<g id="node7" class="node">
<title>UpdateGoal!</title>
<ellipse fill="gray" stroke="black" cx="43.3" cy="-162" rx="43.1" ry="18"/>
<text text-anchor="middle" x="43.3" y="-159.8" font-family="Times,serif" font-size="9.00">UpdateGoal!</text>
</g>
<!-- ChgGoalSeq&#45;&gt;UpdateGoal! -->
<g id="edge6" class="edge">
<title>ChgGoalSeq&#45;&gt;UpdateGoal!</title>
<path fill="none" stroke="black" d="M141.5,-215.88C122.16,-205.46 97.47,-192.17 77.68,-181.51"/>
<polygon fill="black" stroke="black" points="79.15,-178.33 68.69,-176.67 75.83,-184.49 79.15,-178.33"/>
</g>
<!-- ComputePotentialLds! -->
<g id="node8" class="node">
<title>ComputePotentialLds!</title>
<ellipse fill="gray" stroke="black" cx="173.3" cy="-162" rx="68.91" ry="18"/>
<text text-anchor="middle" x="173.3" y="-159.8" font-family="Times,serif" font-size="9.00">ComputePotentialLds!</text>
</g>
<!-- ChgGoalSeq&#45;&gt;ComputePotentialLds! -->
<g id="edge7" class="edge">
<title>ChgGoalSeq&#45;&gt;ComputePotentialLds!</title>
<path fill="none" stroke="black" d="M173.3,-215.7C173.3,-207.98 173.3,-198.71 173.3,-190.11"/>
<polygon fill="black" stroke="black" points="176.8,-190.1 173.3,-180.1 169.8,-190.1 176.8,-190.1"/>
</g>
<!-- LdSeq -->
<g id="node10" class="node">
<title>LdSeq</title>
<polygon fill="orange" stroke="black" points="375.3,-252 321.3,-252 321.3,-216 375.3,-216 375.3,-252"/>
<text text-anchor="middle" x="348.3" y="-231.8" font-family="Times,serif" font-size="9.00">LdSeq</text>
</g>
<!-- GoalLoopFall&#45;&gt;LdSeq -->
<g id="edge9" class="edge">
<title>GoalLoopFall&#45;&gt;LdSeq</title>
<path fill="none" stroke="black" d="M348.3,-287.7C348.3,-279.98 348.3,-270.71 348.3,-262.11"/>
<polygon fill="black" stroke="black" points="351.8,-262.1 348.3,-252.1 344.8,-262.1 351.8,-262.1"/>
</g>
<!-- MoveSeq -->
<g id="node13" class="node">
<title>MoveSeq</title>
<polygon fill="orange" stroke="black" points="514.8,-252 455.8,-252 455.8,-216 514.8,-216 514.8,-252"/>
<text text-anchor="middle" x="485.3" y="-231.8" font-family="Times,serif" font-size="9.00">MoveSeq</text>
</g>
<!-- GoalLoopFall&#45;&gt;MoveSeq -->
<g id="edge12" class="edge">
<title>GoalLoopFall&#45;&gt;MoveSeq</title>
<path fill="none" stroke="black" d="M376.03,-290.83C396.37,-280.44 424.25,-266.19 446.76,-254.69"/>
<polygon fill="black" stroke="black" points="448.41,-257.78 455.72,-250.11 445.22,-251.55 448.41,-257.78"/>
</g>
<!-- CloseToLd? -->
<g id="node11" class="node">
<title>CloseToLd?</title>
<ellipse fill="gray" stroke="black" cx="299.3" cy="-162" rx="39.02" ry="18"/>
<text text-anchor="middle" x="299.3" y="-159.8" font-family="Times,serif" font-size="9.00">CloseToLd?</text>
</g>
<!-- LdSeq&#45;&gt;CloseToLd? -->
<g id="edge10" class="edge">
<title>LdSeq&#45;&gt;CloseToLd?</title>
<path fill="none" stroke="black" d="M336.19,-215.7C330.35,-207.35 323.23,-197.18 316.81,-188.02"/>
<polygon fill="black" stroke="black" points="319.54,-185.81 310.94,-179.62 313.8,-189.82 319.54,-185.81"/>
</g>
<!-- GetNextLd! -->
<g id="node12" class="node">
<title>GetNextLd!</title>
<ellipse fill="gray" stroke="black" cx="397.3" cy="-162" rx="40.98" ry="18"/>
<text text-anchor="middle" x="397.3" y="-159.8" font-family="Times,serif" font-size="9.00">GetNextLd!</text>
</g>
<!-- LdSeq&#45;&gt;GetNextLd! -->
<g id="edge11" class="edge">
<title>LdSeq&#45;&gt;GetNextLd!</title>
<path fill="none" stroke="black" d="M360.41,-215.7C366.26,-207.35 373.37,-197.18 379.79,-188.02"/>
<polygon fill="black" stroke="black" points="382.8,-189.82 385.67,-179.62 377.06,-185.81 382.8,-189.82"/>
</g>
<!-- SGFall -->
<g id="node14" class="node">
<title>SGFall</title>
<polygon fill="cyan" stroke="black" points="514.54,-154.54 514.54,-169.46 497.41,-180 473.19,-180 456.06,-169.46 456.06,-154.54 473.19,-144 497.41,-144 514.54,-154.54"/>
<text text-anchor="middle" x="485.3" y="-159.8" font-family="Times,serif" font-size="9.00">SGFall</text>
</g>
<!-- MoveSeq&#45;&gt;SGFall -->
<g id="edge13" class="edge">
<title>MoveSeq&#45;&gt;SGFall</title>
<path fill="none" stroke="black" d="M485.3,-215.7C485.3,-207.98 485.3,-198.71 485.3,-190.11"/>
<polygon fill="black" stroke="black" points="488.8,-190.1 485.3,-180.1 481.8,-190.1 488.8,-190.1"/>
</g>
<!-- MoveLoopFall -->
<g id="node17" class="node">
<title>MoveLoopFall</title>
<polygon fill="cyan" stroke="black" points="640.04,-154.54 640.04,-169.46 610.32,-180 568.29,-180 538.56,-169.46 538.56,-154.54 568.29,-144 610.32,-144 640.04,-154.54"/>
<text text-anchor="middle" x="589.3" y="-159.8" font-family="Times,serif" font-size="9.00">MoveLoopFall</text>
</g>
<!-- MoveSeq&#45;&gt;MoveLoopFall -->
<g id="edge16" class="edge">
<title>MoveSeq&#45;&gt;MoveLoopFall</title>
<path fill="none" stroke="black" d="M510.74,-215.88C524.62,-206.54 541.94,-194.88 556.78,-184.89"/>
<polygon fill="black" stroke="black" points="558.85,-187.71 565.19,-179.23 554.94,-181.91 558.85,-187.71"/>
</g>
<!-- NotReadyForSG? -->
<g id="node15" class="node">
<title>NotReadyForSG?</title>
<ellipse fill="gray" stroke="black" cx="353.3" cy="-90" rx="55.35" ry="18"/>
<text text-anchor="middle" x="353.3" y="-87.8" font-family="Times,serif" font-size="9.00">NotReadyForSG?</text>
</g>
<!-- SGFall&#45;&gt;NotReadyForSG? -->
<g id="edge14" class="edge">
<title>SGFall&#45;&gt;NotReadyForSG?</title>
<path fill="none" stroke="black" d="M463.8,-149.6C443.94,-139.06 414.01,-123.19 390.3,-110.62"/>
<polygon fill="black" stroke="black" points="391.71,-107.4 381.23,-105.81 388.43,-113.59 391.71,-107.4"/>
</g>
<!-- GenerateSubGoal! -->
<g id="node16" class="node">
<title>GenerateSubGoal!</title>
<ellipse fill="gray" stroke="black" cx="485.3" cy="-90" rx="58.78" ry="18"/>
<text text-anchor="middle" x="485.3" y="-87.8" font-family="Times,serif" font-size="9.00">GenerateSubGoal!</text>
</g>
<!-- SGFall&#45;&gt;GenerateSubGoal! -->
<g id="edge15" class="edge">
<title>SGFall&#45;&gt;GenerateSubGoal!</title>
<path fill="none" stroke="black" d="M485.3,-143.7C485.3,-135.98 485.3,-126.71 485.3,-118.11"/>
<polygon fill="black" stroke="black" points="488.8,-118.1 485.3,-108.1 481.8,-118.1 488.8,-118.1"/>
</g>
<!-- SafeSeq -->
<g id="node18" class="node">
<title>SafeSeq</title>
<polygon fill="orange" stroke="black" points="616.3,-108 562.3,-108 562.3,-72 616.3,-72 616.3,-108"/>
<text text-anchor="middle" x="589.3" y="-87.8" font-family="Times,serif" font-size="9.00">SafeSeq</text>
</g>
<!-- MoveLoopFall&#45;&gt;SafeSeq -->
<g id="edge17" class="edge">
<title>MoveLoopFall&#45;&gt;SafeSeq</title>
<path fill="none" stroke="black" d="M589.3,-143.7C589.3,-135.98 589.3,-126.71 589.3,-118.11"/>
<polygon fill="black" stroke="black" points="592.8,-118.1 589.3,-108.1 585.8,-118.1 592.8,-118.1"/>
</g>
<!-- MoveToSubGoal! -->
<g id="node21" class="node">
<title>MoveToSubGoal!</title>
<ellipse fill="gray" stroke="black" cx="689.3" cy="-90" rx="54.7" ry="18"/>
<text text-anchor="middle" x="689.3" y="-87.8" font-family="Times,serif" font-size="9.00">MoveToSubGoal!</text>
</g>
<!-- MoveLoopFall&#45;&gt;MoveToSubGoal! -->
<g id="edge20" class="edge">
<title>MoveLoopFall&#45;&gt;MoveToSubGoal!</title>
<path fill="none" stroke="black" d="M612.49,-144.76C626.19,-135.18 643.7,-122.92 658.54,-112.53"/>
<polygon fill="black" stroke="black" points="660.74,-115.27 666.92,-106.67 656.72,-109.53 660.74,-115.27"/>
</g>
<!-- NotSafe? -->
<g id="node19" class="node">
<title>NotSafe?</title>
<ellipse fill="gray" stroke="black" cx="530.3" cy="-18" rx="33.47" ry="18"/>
<text text-anchor="middle" x="530.3" y="-15.8" font-family="Times,serif" font-size="9.00">NotSafe?</text>
</g>
<!-- SafeSeq&#45;&gt;NotSafe? -->
<g id="edge18" class="edge">
<title>SafeSeq&#45;&gt;NotSafe?</title>
<path fill="none" stroke="black" d="M574.72,-71.7C567.25,-62.84 558.06,-51.93 549.98,-42.34"/>
<polygon fill="black" stroke="black" points="552.63,-40.06 543.51,-34.67 547.28,-44.57 552.63,-40.06"/>
</g>
<!-- SafeMoveToSubGoal! -->
<g id="node20" class="node">
<title>SafeMoveToSubGoal!</title>
<ellipse fill="gray" stroke="black" cx="647.3" cy="-18" rx="65.64" ry="18"/>
<text text-anchor="middle" x="647.3" y="-15.8" font-family="Times,serif" font-size="9.00">SafeMoveToSubGoal!</text>
</g>
<!-- SafeSeq&#45;&gt;SafeMoveToSubGoal! -->
<g id="edge19" class="edge">
<title>SafeSeq&#45;&gt;SafeMoveToSubGoal!</title>
<path fill="none" stroke="black" d="M603.64,-71.7C610.7,-63.18 619.32,-52.76 627.04,-43.45"/>
<polygon fill="black" stroke="black" points="629.84,-45.56 633.53,-35.62 624.45,-41.09 629.84,-45.56"/>
</g>
</g>
</svg>
