<?xml version="1.0" encoding="UTF-8" standalone="no"?>
<!DOCTYPE svg PUBLIC "-//W3C//DTD SVG 1.1//EN"
 "http://www.w3.org/Graphics/SVG/1.1/DTD/svg11.dtd">
<!-- Generated by graphviz version 2.43.0 (0)
 -->
<!-- Title: pastafarianism Pages: 1 -->
<svg width="565pt" height="332pt"
 viewBox="0.00 0.00 565.44 332.00" xmlns="http://www.w3.org/2000/svg" xmlns:xlink="http://www.w3.org/1999/xlink">
<g id="graph0" class="graph" transform="scale(1 1) rotate(0) translate(4 328)">
<title>pastafarianism</title>
<polygon fill="white" stroke="transparent" points="-4,4 -4,-328 561.44,-328 561.44,4 -4,4"/>
<!-- AirTreeSeq -->
<g id="node1" class="node">
<title>AirTreeSeq</title>
<polygon fill="orange" stroke="black" points="334.09,-324 253.09,-324 253.09,-288 334.09,-288 334.09,-324"/>
<text text-anchor="middle" x="293.59" y="-303.8" font-family="Times,serif" font-size="9.00">Ⓜ AirTreeSeq</text>
</g>
<!-- PotLdFall -->
<g id="node2" class="node">
<title>PotLdFall</title>
<polygon fill="cyan" stroke="black" points="267.83,-226.54 267.83,-241.46 245.43,-252 213.75,-252 191.35,-241.46 191.35,-226.54 213.75,-216 245.43,-216 267.83,-226.54"/>
<text text-anchor="middle" x="229.59" y="-231.8" font-family="Times,serif" font-size="9.00">PotLdFall</text>
</g>
<!-- AirTreeSeq&#45;&gt;PotLdFall -->
<g id="edge1" class="edge">
<title>AirTreeSeq&#45;&gt;PotLdFall</title>
<path fill="none" stroke="black" d="M277.77,-287.7C270.02,-279.22 260.55,-268.86 252.07,-259.58"/>
<polygon fill="black" stroke="black" points="254.56,-257.12 245.23,-252.1 249.39,-261.85 254.56,-257.12"/>
</g>
<!-- CtrlFall -->
<g id="node5" class="node">
<title>CtrlFall</title>
<polygon fill="cyan" stroke="black" points="390.08,-226.54 390.08,-241.46 371.05,-252 344.13,-252 325.1,-241.46 325.1,-226.54 344.13,-216 371.05,-216 390.08,-226.54"/>
<text text-anchor="middle" x="357.59" y="-231.8" font-family="Times,serif" font-size="9.00">CtrlFall</text>
</g>
<!-- AirTreeSeq&#45;&gt;CtrlFall -->
<g id="edge4" class="edge">
<title>AirTreeSeq&#45;&gt;CtrlFall</title>
<path fill="none" stroke="black" d="M309.41,-287.7C317.28,-279.09 326.91,-268.55 335.5,-259.17"/>
<polygon fill="black" stroke="black" points="338.23,-261.36 342.39,-251.62 333.06,-256.64 338.23,-261.36"/>
</g>
<!-- RetrievedPotentialLds? -->
<g id="node3" class="node">
<title>RetrievedPotentialLds?</title>
<ellipse fill="gray" stroke="black" cx="71.59" cy="-162" rx="71.68" ry="18"/>
<text text-anchor="middle" x="71.59" y="-159.8" font-family="Times,serif" font-size="9.00">RetrievedPotentialLds?</text>
</g>
<!-- PotLdFall&#45;&gt;RetrievedPotentialLds? -->
<g id="edge2" class="edge">
<title>PotLdFall&#45;&gt;RetrievedPotentialLds?</title>
<path fill="none" stroke="black" d="M202.79,-221.13C178.66,-210.44 142.78,-194.54 114.64,-182.07"/>
<polygon fill="black" stroke="black" points="115.98,-178.84 105.42,-177.99 113.14,-185.24 115.98,-178.84"/>
</g>
<!-- ComputePotentialLds! -->
<g id="node4" class="node">
<title>ComputePotentialLds!</title>
<ellipse fill="gray" stroke="black" cx="229.59" cy="-162" rx="68.91" ry="18"/>
<text text-anchor="middle" x="229.59" y="-159.8" font-family="Times,serif" font-size="9.00">ComputePotentialLds!</text>
</g>
<!-- PotLdFall&#45;&gt;ComputePotentialLds! -->
<g id="edge3" class="edge">
<title>PotLdFall&#45;&gt;ComputePotentialLds!</title>
<path fill="none" stroke="black" d="M229.59,-215.7C229.59,-207.98 229.59,-198.71 229.59,-190.11"/>
<polygon fill="black" stroke="black" points="233.09,-190.1 229.59,-180.1 226.09,-190.1 233.09,-190.1"/>
</g>
<!-- ReachGoal? -->
<g id="node6" class="node">
<title>ReachGoal?</title>
<ellipse fill="gray" stroke="black" cx="357.59" cy="-162" rx="40.98" ry="18"/>
<text text-anchor="middle" x="357.59" y="-159.8" font-family="Times,serif" font-size="9.00">ReachGoal?</text>
</g>
<!-- CtrlFall&#45;&gt;ReachGoal? -->
<g id="edge5" class="edge">
<title>CtrlFall&#45;&gt;ReachGoal?</title>
<path fill="none" stroke="black" d="M357.59,-215.7C357.59,-207.98 357.59,-198.71 357.59,-190.11"/>
<polygon fill="black" stroke="black" points="361.09,-190.1 357.59,-180.1 354.09,-190.1 361.09,-190.1"/>
</g>
<!-- MoveSeq -->
<g id="node7" class="node">
<title>MoveSeq</title>
<polygon fill="orange" stroke="black" points="487.09,-180 416.09,-180 416.09,-144 487.09,-144 487.09,-180"/>
<text text-anchor="middle" x="451.59" y="-159.8" font-family="Times,serif" font-size="9.00">Ⓜ MoveSeq</text>
</g>
<!-- CtrlFall&#45;&gt;MoveSeq -->
<g id="edge6" class="edge">
<title>CtrlFall&#45;&gt;MoveSeq</title>
<path fill="none" stroke="black" d="M376.61,-218.83C389.17,-209.48 405.92,-197.01 420.4,-186.23"/>
<polygon fill="black" stroke="black" points="422.68,-188.89 428.61,-180.11 418.5,-183.28 422.68,-188.89"/>
</g>
<!-- SGFall -->
<g id="node8" class="node">
<title>SGFall</title>
<polygon fill="cyan" stroke="black" points="429.83,-82.54 429.83,-97.46 412.7,-108 388.48,-108 371.35,-97.46 371.35,-82.54 388.48,-72 412.7,-72 429.83,-82.54"/>
<text text-anchor="middle" x="400.59" y="-87.8" font-family="Times,serif" font-size="9.00">SGFall</text>
</g>
<!-- MoveSeq&#45;&gt;SGFall -->
<g id="edge7" class="edge">
<title>MoveSeq&#45;&gt;SGFall</title>
<path fill="none" stroke="black" d="M438.98,-143.7C432.99,-135.47 425.71,-125.48 419.11,-116.42"/>
<polygon fill="black" stroke="black" points="421.77,-114.13 413.05,-108.1 416.11,-118.25 421.77,-114.13"/>
</g>
<!-- MoveToSubGoal! -->
<g id="node11" class="node">
<title>MoveToSubGoal!</title>
<ellipse fill="gray" stroke="black" cx="502.59" cy="-90" rx="54.7" ry="18"/>
<text text-anchor="middle" x="502.59" y="-87.8" font-family="Times,serif" font-size="9.00">MoveToSubGoal!</text>
</g>
<!-- MoveSeq&#45;&gt;MoveToSubGoal! -->
<g id="edge10" class="edge">
<title>MoveSeq&#45;&gt;MoveToSubGoal!</title>
<path fill="none" stroke="black" d="M464.2,-143.7C470.34,-135.27 477.84,-124.97 484.57,-115.73"/>
<polygon fill="black" stroke="black" points="487.42,-117.77 490.48,-107.62 481.76,-113.64 487.42,-117.77"/>
</g>
<!-- NotReadyForSG? -->
<g id="node9" class="node">
<title>NotReadyForSG?</title>
<ellipse fill="gray" stroke="black" cx="334.59" cy="-18" rx="55.35" ry="18"/>
<text text-anchor="middle" x="334.59" y="-15.8" font-family="Times,serif" font-size="9.00">NotReadyForSG?</text>
</g>
<!-- SGFall&#45;&gt;NotReadyForSG? -->
<g id="edge8" class="edge">
<title>SGFall&#45;&gt;NotReadyForSG?</title>
<path fill="none" stroke="black" d="M385.94,-73.46C377.47,-64.48 366.63,-52.98 357.09,-42.87"/>
<polygon fill="black" stroke="black" points="359.52,-40.34 350.12,-35.47 354.43,-45.14 359.52,-40.34"/>
</g>
<!-- GenerateSubGoal! -->
<g id="node10" class="node">
<title>GenerateSubGoal!</title>
<ellipse fill="gray" stroke="black" cx="466.59" cy="-18" rx="58.78" ry="18"/>
<text text-anchor="middle" x="466.59" y="-15.8" font-family="Times,serif" font-size="9.00">GenerateSubGoal!</text>
</g>
<!-- SGFall&#45;&gt;GenerateSubGoal! -->
<g id="edge9" class="edge">
<title>SGFall&#45;&gt;GenerateSubGoal!</title>
<path fill="none" stroke="black" d="M415.24,-73.46C423.71,-64.48 434.55,-52.98 444.09,-42.87"/>
<polygon fill="black" stroke="black" points="446.75,-45.14 451.07,-35.47 441.66,-40.34 446.75,-45.14"/>
</g>
</g>
</svg>
