<?xml version="1.0" encoding="UTF-8" standalone="no"?>
<!DOCTYPE svg PUBLIC "-//W3C//DTD SVG 1.1//EN"
 "http://www.w3.org/Graphics/SVG/1.1/DTD/svg11.dtd">
<!-- Generated by graphviz version 2.43.0 (0)
 -->
<!-- Title: pastafarianism Pages: 1 -->
<svg width="775pt" height="476pt"
 viewBox="0.00 0.00 775.44 476.00" xmlns="http://www.w3.org/2000/svg" xmlns:xlink="http://www.w3.org/1999/xlink">
<g id="graph0" class="graph" transform="scale(1 1) rotate(0) translate(4 472)">
<title>pastafarianism</title>
<polygon fill="white" stroke="transparent" points="-4,4 -4,-472 771.44,-472 771.44,4 -4,4"/>
<!-- AirTreeSeq -->
<g id="node1" class="node">
<title>AirTreeSeq</title>
<polygon fill="orange" stroke="black" points="334.09,-468 253.09,-468 253.09,-432 334.09,-432 334.09,-468"/>
<text text-anchor="middle" x="293.59" y="-447.8" font-family="Times,serif" font-size="9.00">Ⓜ AirTreeSeq</text>
</g>
<!-- PotLdFall -->
<g id="node2" class="node">
<title>PotLdFall</title>
<polygon fill="cyan" stroke="black" points="267.83,-370.54 267.83,-385.46 245.43,-396 213.75,-396 191.35,-385.46 191.35,-370.54 213.75,-360 245.43,-360 267.83,-370.54"/>
<text text-anchor="middle" x="229.59" y="-375.8" font-family="Times,serif" font-size="9.00">PotLdFall</text>
</g>
<!-- AirTreeSeq&#45;&gt;PotLdFall -->
<g id="edge1" class="edge">
<title>AirTreeSeq&#45;&gt;PotLdFall</title>
<path fill="none" stroke="black" d="M277.77,-431.7C270.02,-423.22 260.55,-412.86 252.07,-403.58"/>
<polygon fill="black" stroke="black" points="254.56,-401.12 245.23,-396.1 249.39,-405.85 254.56,-401.12"/>
</g>
<!-- CtrlFall -->
<g id="node5" class="node">
<title>CtrlFall</title>
<polygon fill="cyan" stroke="black" points="390.08,-370.54 390.08,-385.46 371.05,-396 344.13,-396 325.1,-385.46 325.1,-370.54 344.13,-360 371.05,-360 390.08,-370.54"/>
<text text-anchor="middle" x="357.59" y="-375.8" font-family="Times,serif" font-size="9.00">CtrlFall</text>
</g>
<!-- AirTreeSeq&#45;&gt;CtrlFall -->
<g id="edge4" class="edge">
<title>AirTreeSeq&#45;&gt;CtrlFall</title>
<path fill="none" stroke="black" d="M309.41,-431.7C317.28,-423.09 326.91,-412.55 335.5,-403.17"/>
<polygon fill="black" stroke="black" points="338.23,-405.36 342.39,-395.62 333.06,-400.64 338.23,-405.36"/>
</g>
<!-- RetrievedPotentialLds? -->
<g id="node3" class="node">
<title>RetrievedPotentialLds?</title>
<ellipse fill="gray" stroke="black" cx="71.59" cy="-306" rx="71.68" ry="18"/>
<text text-anchor="middle" x="71.59" y="-303.8" font-family="Times,serif" font-size="9.00">RetrievedPotentialLds?</text>
</g>
<!-- PotLdFall&#45;&gt;RetrievedPotentialLds? -->
<g id="edge2" class="edge">
<title>PotLdFall&#45;&gt;RetrievedPotentialLds?</title>
<path fill="none" stroke="black" d="M202.79,-365.13C178.66,-354.44 142.78,-338.54 114.64,-326.07"/>
<polygon fill="black" stroke="black" points="115.98,-322.84 105.42,-321.99 113.14,-329.24 115.98,-322.84"/>
</g>
<!-- ComputePotentialLds! -->
<g id="node4" class="node">
<title>ComputePotentialLds!</title>
<ellipse fill="gray" stroke="black" cx="229.59" cy="-306" rx="68.91" ry="18"/>
<text text-anchor="middle" x="229.59" y="-303.8" font-family="Times,serif" font-size="9.00">ComputePotentialLds!</text>
</g>
<!-- PotLdFall&#45;&gt;ComputePotentialLds! -->
<g id="edge3" class="edge">
<title>PotLdFall&#45;&gt;ComputePotentialLds!</title>
<path fill="none" stroke="black" d="M229.59,-359.7C229.59,-351.98 229.59,-342.71 229.59,-334.11"/>
<polygon fill="black" stroke="black" points="233.09,-334.1 229.59,-324.1 226.09,-334.1 233.09,-334.1"/>
</g>
<!-- ReachGoal? -->
<g id="node6" class="node">
<title>ReachGoal?</title>
<ellipse fill="gray" stroke="black" cx="357.59" cy="-306" rx="40.98" ry="18"/>
<text text-anchor="middle" x="357.59" y="-303.8" font-family="Times,serif" font-size="9.00">ReachGoal?</text>
</g>
<!-- CtrlFall&#45;&gt;ReachGoal? -->
<g id="edge5" class="edge">
<title>CtrlFall&#45;&gt;ReachGoal?</title>
<path fill="none" stroke="black" d="M357.59,-359.7C357.59,-351.98 357.59,-342.71 357.59,-334.11"/>
<polygon fill="black" stroke="black" points="361.09,-334.1 357.59,-324.1 354.09,-334.1 361.09,-334.1"/>
</g>
<!-- GoalLoopFall -->
<g id="node7" class="node">
<title>GoalLoopFall</title>
<polygon fill="cyan" stroke="black" points="512.83,-298.54 512.83,-313.46 484.57,-324 444.61,-324 416.35,-313.46 416.35,-298.54 444.61,-288 484.57,-288 512.83,-298.54"/>
<text text-anchor="middle" x="464.59" y="-303.8" font-family="Times,serif" font-size="9.00">GoalLoopFall</text>
</g>
<!-- CtrlFall&#45;&gt;GoalLoopFall -->
<g id="edge6" class="edge">
<title>CtrlFall&#45;&gt;GoalLoopFall</title>
<path fill="none" stroke="black" d="M377.97,-363.67C393.15,-353.74 414.2,-339.97 431.74,-328.49"/>
<polygon fill="black" stroke="black" points="434.1,-331.13 440.55,-322.73 430.26,-325.27 434.1,-331.13"/>
</g>
<!-- LdSeq -->
<g id="node8" class="node">
<title>LdSeq</title>
<polygon fill="orange" stroke="black" points="449.59,-252 391.59,-252 391.59,-216 449.59,-216 449.59,-252"/>
<text text-anchor="middle" x="420.59" y="-231.8" font-family="Times,serif" font-size="9.00">Ⓜ LdSeq</text>
</g>
<!-- GoalLoopFall&#45;&gt;LdSeq -->
<g id="edge7" class="edge">
<title>GoalLoopFall&#45;&gt;LdSeq</title>
<path fill="none" stroke="black" d="M453.72,-287.7C448.6,-279.56 442.4,-269.69 436.75,-260.7"/>
<polygon fill="black" stroke="black" points="439.63,-258.71 431.34,-252.1 433.7,-262.43 439.63,-258.71"/>
</g>
<!-- MoveSeq -->
<g id="node11" class="node">
<title>MoveSeq</title>
<polygon fill="orange" stroke="black" points="544.09,-252 473.09,-252 473.09,-216 544.09,-216 544.09,-252"/>
<text text-anchor="middle" x="508.59" y="-231.8" font-family="Times,serif" font-size="9.00">Ⓜ MoveSeq</text>
</g>
<!-- GoalLoopFall&#45;&gt;MoveSeq -->
<g id="edge10" class="edge">
<title>GoalLoopFall&#45;&gt;MoveSeq</title>
<path fill="none" stroke="black" d="M475.47,-287.7C480.58,-279.56 486.79,-269.69 492.44,-260.7"/>
<polygon fill="black" stroke="black" points="495.48,-262.43 497.84,-252.1 489.56,-258.71 495.48,-262.43"/>
</g>
<!-- CloseToLd? -->
<g id="node9" class="node">
<title>CloseToLd?</title>
<ellipse fill="gray" stroke="black" cx="322.59" cy="-162" rx="39.02" ry="18"/>
<text text-anchor="middle" x="322.59" y="-159.8" font-family="Times,serif" font-size="9.00">CloseToLd?</text>
</g>
<!-- LdSeq&#45;&gt;CloseToLd? -->
<g id="edge8" class="edge">
<title>LdSeq&#45;&gt;CloseToLd?</title>
<path fill="none" stroke="black" d="M396.62,-215.88C383.01,-206.16 365.88,-193.92 351.53,-183.67"/>
<polygon fill="black" stroke="black" points="353.18,-180.55 343.01,-177.58 349.11,-186.24 353.18,-180.55"/>
</g>
<!-- GetNextLd! -->
<g id="node10" class="node">
<title>GetNextLd!</title>
<ellipse fill="gray" stroke="black" cx="420.59" cy="-162" rx="40.98" ry="18"/>
<text text-anchor="middle" x="420.59" y="-159.8" font-family="Times,serif" font-size="9.00">GetNextLd!</text>
</g>
<!-- LdSeq&#45;&gt;GetNextLd! -->
<g id="edge9" class="edge">
<title>LdSeq&#45;&gt;GetNextLd!</title>
<path fill="none" stroke="black" d="M420.59,-215.7C420.59,-207.98 420.59,-198.71 420.59,-190.11"/>
<polygon fill="black" stroke="black" points="424.09,-190.1 420.59,-180.1 417.09,-190.1 424.09,-190.1"/>
</g>
<!-- SGFall -->
<g id="node12" class="node">
<title>SGFall</title>
<polygon fill="cyan" stroke="black" points="537.83,-154.54 537.83,-169.46 520.7,-180 496.48,-180 479.35,-169.46 479.35,-154.54 496.48,-144 520.7,-144 537.83,-154.54"/>
<text text-anchor="middle" x="508.59" y="-159.8" font-family="Times,serif" font-size="9.00">SGFall</text>
</g>
<!-- MoveSeq&#45;&gt;SGFall -->
<g id="edge11" class="edge">
<title>MoveSeq&#45;&gt;SGFall</title>
<path fill="none" stroke="black" d="M508.59,-215.7C508.59,-207.98 508.59,-198.71 508.59,-190.11"/>
<polygon fill="black" stroke="black" points="512.09,-190.1 508.59,-180.1 505.09,-190.1 512.09,-190.1"/>
</g>
<!-- MoveLoopFall -->
<g id="node15" class="node">
<title>MoveLoopFall</title>
<polygon fill="cyan" stroke="black" points="663.33,-154.54 663.33,-169.46 633.61,-180 591.58,-180 561.85,-169.46 561.85,-154.54 591.58,-144 633.61,-144 663.33,-154.54"/>
<text text-anchor="middle" x="612.59" y="-159.8" font-family="Times,serif" font-size="9.00">MoveLoopFall</text>
</g>
<!-- MoveSeq&#45;&gt;MoveLoopFall -->
<g id="edge14" class="edge">
<title>MoveSeq&#45;&gt;MoveLoopFall</title>
<path fill="none" stroke="black" d="M534.03,-215.88C547.91,-206.54 565.23,-194.88 580.07,-184.89"/>
<polygon fill="black" stroke="black" points="582.14,-187.71 588.48,-179.23 578.23,-181.91 582.14,-187.71"/>
</g>
<!-- NotReadyForSG? -->
<g id="node13" class="node">
<title>NotReadyForSG?</title>
<ellipse fill="gray" stroke="black" cx="376.59" cy="-90" rx="55.35" ry="18"/>
<text text-anchor="middle" x="376.59" y="-87.8" font-family="Times,serif" font-size="9.00">NotReadyForSG?</text>
</g>
<!-- SGFall&#45;&gt;NotReadyForSG? -->
<g id="edge12" class="edge">
<title>SGFall&#45;&gt;NotReadyForSG?</title>
<path fill="none" stroke="black" d="M487.09,-149.6C467.23,-139.06 437.3,-123.19 413.59,-110.62"/>
<polygon fill="black" stroke="black" points="415,-107.4 404.52,-105.81 411.72,-113.59 415,-107.4"/>
</g>
<!-- GenerateSubGoal! -->
<g id="node14" class="node">
<title>GenerateSubGoal!</title>
<ellipse fill="gray" stroke="black" cx="508.59" cy="-90" rx="58.78" ry="18"/>
<text text-anchor="middle" x="508.59" y="-87.8" font-family="Times,serif" font-size="9.00">GenerateSubGoal!</text>
</g>
<!-- SGFall&#45;&gt;GenerateSubGoal! -->
<g id="edge13" class="edge">
<title>SGFall&#45;&gt;GenerateSubGoal!</title>
<path fill="none" stroke="black" d="M508.59,-143.7C508.59,-135.98 508.59,-126.71 508.59,-118.11"/>
<polygon fill="black" stroke="black" points="512.09,-118.1 508.59,-108.1 505.09,-118.1 512.09,-118.1"/>
</g>
<!-- SafeSeq -->
<g id="node16" class="node">
<title>SafeSeq</title>
<polygon fill="orange" stroke="black" points="639.59,-108 585.59,-108 585.59,-72 639.59,-72 639.59,-108"/>
<text text-anchor="middle" x="612.59" y="-87.8" font-family="Times,serif" font-size="9.00">SafeSeq</text>
</g>
<!-- MoveLoopFall&#45;&gt;SafeSeq -->
<g id="edge15" class="edge">
<title>MoveLoopFall&#45;&gt;SafeSeq</title>
<path fill="none" stroke="black" d="M612.59,-143.7C612.59,-135.98 612.59,-126.71 612.59,-118.11"/>
<polygon fill="black" stroke="black" points="616.09,-118.1 612.59,-108.1 609.09,-118.1 616.09,-118.1"/>
</g>
<!-- MoveToSubGoal! -->
<g id="node19" class="node">
<title>MoveToSubGoal!</title>
<ellipse fill="gray" stroke="black" cx="712.59" cy="-90" rx="54.7" ry="18"/>
<text text-anchor="middle" x="712.59" y="-87.8" font-family="Times,serif" font-size="9.00">MoveToSubGoal!</text>
</g>
<!-- MoveLoopFall&#45;&gt;MoveToSubGoal! -->
<g id="edge18" class="edge">
<title>MoveLoopFall&#45;&gt;MoveToSubGoal!</title>
<path fill="none" stroke="black" d="M635.78,-144.76C649.48,-135.18 666.99,-122.92 681.83,-112.53"/>
<polygon fill="black" stroke="black" points="684.03,-115.27 690.21,-106.67 680.01,-109.53 684.03,-115.27"/>
</g>
<!-- NotSafe? -->
<g id="node17" class="node">
<title>NotSafe?</title>
<ellipse fill="gray" stroke="black" cx="553.59" cy="-18" rx="33.47" ry="18"/>
<text text-anchor="middle" x="553.59" y="-15.8" font-family="Times,serif" font-size="9.00">NotSafe?</text>
</g>
<!-- SafeSeq&#45;&gt;NotSafe? -->
<g id="edge16" class="edge">
<title>SafeSeq&#45;&gt;NotSafe?</title>
<path fill="none" stroke="black" d="M598.01,-71.7C590.54,-62.84 581.35,-51.93 573.27,-42.34"/>
<polygon fill="black" stroke="black" points="575.92,-40.06 566.8,-34.67 570.57,-44.57 575.92,-40.06"/>
</g>
<!-- SafeMoveToSubGoal! -->
<g id="node18" class="node">
<title>SafeMoveToSubGoal!</title>
<ellipse fill="gray" stroke="black" cx="670.59" cy="-18" rx="65.64" ry="18"/>
<text text-anchor="middle" x="670.59" y="-15.8" font-family="Times,serif" font-size="9.00">SafeMoveToSubGoal!</text>
</g>
<!-- SafeSeq&#45;&gt;SafeMoveToSubGoal! -->
<g id="edge17" class="edge">
<title>SafeSeq&#45;&gt;SafeMoveToSubGoal!</title>
<path fill="none" stroke="black" d="M626.93,-71.7C633.99,-63.18 642.62,-52.76 650.33,-43.45"/>
<polygon fill="black" stroke="black" points="653.13,-45.56 656.82,-35.62 647.74,-41.09 653.13,-45.56"/>
</g>
</g>
</svg>
