<?xml version="1.0" encoding="UTF-8" standalone="no"?>
<!DOCTYPE svg PUBLIC "-//W3C//DTD SVG 1.1//EN"
 "http://www.w3.org/Graphics/SVG/1.1/DTD/svg11.dtd">
<!-- Generated by graphviz version 2.43.0 (0)
 -->
<!-- Title: pastafarianism Pages: 1 -->
<svg width="764pt" height="476pt"
 viewBox="0.00 0.00 764.44 476.00" xmlns="http://www.w3.org/2000/svg" xmlns:xlink="http://www.w3.org/1999/xlink">
<g id="graph0" class="graph" transform="scale(1 1) rotate(0) translate(4 472)">
<title>pastafarianism</title>
<polygon fill="white" stroke="transparent" points="-4,4 -4,-472 760.44,-472 760.44,4 -4,4"/>
<!-- AirTreeSeq -->
<g id="node1" class="node">
<title>AirTreeSeq</title>
<polygon fill="orange" stroke="black" points="334.09,-468 253.09,-468 253.09,-432 334.09,-432 334.09,-468"/>
<text text-anchor="middle" x="293.59" y="-447.8" font-family="Times,serif" font-size="9.00">Ⓜ AirTreeSeq</text>
</g>
<!-- PotLdFall -->
<g id="node2" class="node">
<title>PotLdFall</title>
<polygon fill="cyan" stroke="black" points="267.83,-370.54 267.83,-385.46 245.43,-396 213.75,-396 191.35,-385.46 191.35,-370.54 213.75,-360 245.43,-360 267.83,-370.54"/>
<text text-anchor="middle" x="229.59" y="-375.8" font-family="Times,serif" font-size="9.00">PotLdFall</text>
</g>
<!-- AirTreeSeq&#45;&gt;PotLdFall -->
<g id="edge1" class="edge">
<title>AirTreeSeq&#45;&gt;PotLdFall</title>
<path fill="none" stroke="black" d="M277.77,-431.7C270.02,-423.22 260.55,-412.86 252.07,-403.58"/>
<polygon fill="black" stroke="black" points="254.56,-401.12 245.23,-396.1 249.39,-405.85 254.56,-401.12"/>
</g>
<!-- CtrlFall -->
<g id="node5" class="node">
<title>CtrlFall</title>
<polygon fill="cyan" stroke="black" points="390.08,-370.54 390.08,-385.46 371.05,-396 344.13,-396 325.1,-385.46 325.1,-370.54 344.13,-360 371.05,-360 390.08,-370.54"/>
<text text-anchor="middle" x="357.59" y="-375.8" font-family="Times,serif" font-size="9.00">CtrlFall</text>
</g>
<!-- AirTreeSeq&#45;&gt;CtrlFall -->
<g id="edge4" class="edge">
<title>AirTreeSeq&#45;&gt;CtrlFall</title>
<path fill="none" stroke="black" d="M309.41,-431.7C317.28,-423.09 326.91,-412.55 335.5,-403.17"/>
<polygon fill="black" stroke="black" points="338.23,-405.36 342.39,-395.62 333.06,-400.64 338.23,-405.36"/>
</g>
<!-- RetrievedPotentialLds? -->
<g id="node3" class="node">
<title>RetrievedPotentialLds?</title>
<ellipse fill="gray" stroke="black" cx="71.59" cy="-306" rx="71.68" ry="18"/>
<text text-anchor="middle" x="71.59" y="-303.8" font-family="Times,serif" font-size="9.00">RetrievedPotentialLds?</text>
</g>
<!-- PotLdFall&#45;&gt;RetrievedPotentialLds? -->
<g id="edge2" class="edge">
<title>PotLdFall&#45;&gt;RetrievedPotentialLds?</title>
<path fill="none" stroke="black" d="M202.79,-365.13C178.66,-354.44 142.78,-338.54 114.64,-326.07"/>
<polygon fill="black" stroke="black" points="115.98,-322.84 105.42,-321.99 113.14,-329.24 115.98,-322.84"/>
</g>
<!-- ComputePotentialLds! -->
<g id="node4" class="node">
<title>ComputePotentialLds!</title>
<ellipse fill="gray" stroke="black" cx="229.59" cy="-306" rx="68.91" ry="18"/>
<text text-anchor="middle" x="229.59" y="-303.8" font-family="Times,serif" font-size="9.00">ComputePotentialLds!</text>
</g>
<!-- PotLdFall&#45;&gt;ComputePotentialLds! -->
<g id="edge3" class="edge">
<title>PotLdFall&#45;&gt;ComputePotentialLds!</title>
<path fill="none" stroke="black" d="M229.59,-359.7C229.59,-351.98 229.59,-342.71 229.59,-334.11"/>
<polygon fill="black" stroke="black" points="233.09,-334.1 229.59,-324.1 226.09,-334.1 233.09,-334.1"/>
</g>
<!-- ReachGoal? -->
<g id="node6" class="node">
<title>ReachGoal?</title>
<ellipse fill="gray" stroke="black" cx="357.59" cy="-306" rx="40.98" ry="18"/>
<text text-anchor="middle" x="357.59" y="-303.8" font-family="Times,serif" font-size="9.00">ReachGoal?</text>
</g>
<!-- CtrlFall&#45;&gt;ReachGoal? -->
<g id="edge5" class="edge">
<title>CtrlFall&#45;&gt;ReachGoal?</title>
<path fill="none" stroke="black" d="M357.59,-359.7C357.59,-351.98 357.59,-342.71 357.59,-334.11"/>
<polygon fill="black" stroke="black" points="361.09,-334.1 357.59,-324.1 354.09,-334.1 361.09,-334.1"/>
</g>
<!-- GoalLoopFall -->
<g id="node7" class="node">
<title>GoalLoopFall</title>
<polygon fill="cyan" stroke="black" points="512.83,-298.54 512.83,-313.46 484.57,-324 444.61,-324 416.35,-313.46 416.35,-298.54 444.61,-288 484.57,-288 512.83,-298.54"/>
<text text-anchor="middle" x="464.59" y="-303.8" font-family="Times,serif" font-size="9.00">GoalLoopFall</text>
</g>
<!-- CtrlFall&#45;&gt;GoalLoopFall -->
<g id="edge6" class="edge">
<title>CtrlFall&#45;&gt;GoalLoopFall</title>
<path fill="none" stroke="black" d="M377.97,-363.67C393.15,-353.74 414.2,-339.97 431.74,-328.49"/>
<polygon fill="black" stroke="black" points="434.1,-331.13 440.55,-322.73 430.26,-325.27 434.1,-331.13"/>
</g>
<!-- LdSeq -->
<g id="node8" class="node">
<title>LdSeq</title>
<polygon fill="orange" stroke="black" points="434.59,-252 376.59,-252 376.59,-216 434.59,-216 434.59,-252"/>
<text text-anchor="middle" x="405.59" y="-231.8" font-family="Times,serif" font-size="9.00">Ⓜ LdSeq</text>
</g>
<!-- GoalLoopFall&#45;&gt;LdSeq -->
<g id="edge7" class="edge">
<title>GoalLoopFall&#45;&gt;LdSeq</title>
<path fill="none" stroke="black" d="M450.01,-287.7C442.93,-279.3 434.31,-269.07 426.55,-259.86"/>
<polygon fill="black" stroke="black" points="429.13,-257.49 420.01,-252.1 423.78,-262.01 429.13,-257.49"/>
</g>
<!-- MoveSeq -->
<g id="node11" class="node">
<title>MoveSeq</title>
<polygon fill="orange" stroke="black" points="559.09,-252 488.09,-252 488.09,-216 559.09,-216 559.09,-252"/>
<text text-anchor="middle" x="523.59" y="-231.8" font-family="Times,serif" font-size="9.00">Ⓜ MoveSeq</text>
</g>
<!-- GoalLoopFall&#45;&gt;MoveSeq -->
<g id="edge10" class="edge">
<title>GoalLoopFall&#45;&gt;MoveSeq</title>
<path fill="none" stroke="black" d="M479.18,-287.7C486.25,-279.3 494.87,-269.07 502.64,-259.86"/>
<polygon fill="black" stroke="black" points="505.41,-262.01 509.17,-252.1 500.05,-257.49 505.41,-262.01"/>
</g>
<!-- CloseToLd? -->
<g id="node9" class="node">
<title>CloseToLd?</title>
<ellipse fill="gray" stroke="black" cx="307.59" cy="-162" rx="39.02" ry="18"/>
<text text-anchor="middle" x="307.59" y="-159.8" font-family="Times,serif" font-size="9.00">CloseToLd?</text>
</g>
<!-- LdSeq&#45;&gt;CloseToLd? -->
<g id="edge8" class="edge">
<title>LdSeq&#45;&gt;CloseToLd?</title>
<path fill="none" stroke="black" d="M381.62,-215.88C368.01,-206.16 350.88,-193.92 336.53,-183.67"/>
<polygon fill="black" stroke="black" points="338.18,-180.55 328.01,-177.58 334.11,-186.24 338.18,-180.55"/>
</g>
<!-- GetNextLd! -->
<g id="node10" class="node">
<title>GetNextLd!</title>
<ellipse fill="gray" stroke="black" cx="405.59" cy="-162" rx="40.98" ry="18"/>
<text text-anchor="middle" x="405.59" y="-159.8" font-family="Times,serif" font-size="9.00">GetNextLd!</text>
</g>
<!-- LdSeq&#45;&gt;GetNextLd! -->
<g id="edge9" class="edge">
<title>LdSeq&#45;&gt;GetNextLd!</title>
<path fill="none" stroke="black" d="M405.59,-215.7C405.59,-207.98 405.59,-198.71 405.59,-190.11"/>
<polygon fill="black" stroke="black" points="409.09,-190.1 405.59,-180.1 402.09,-190.1 409.09,-190.1"/>
</g>
<!-- GenerateSubGoal! -->
<g id="node12" class="node">
<title>GenerateSubGoal!</title>
<ellipse fill="gray" stroke="black" cx="523.59" cy="-162" rx="58.78" ry="18"/>
<text text-anchor="middle" x="523.59" y="-159.8" font-family="Times,serif" font-size="9.00">GenerateSubGoal!</text>
</g>
<!-- MoveSeq&#45;&gt;GenerateSubGoal! -->
<g id="edge11" class="edge">
<title>MoveSeq&#45;&gt;GenerateSubGoal!</title>
<path fill="none" stroke="black" d="M523.59,-215.7C523.59,-207.98 523.59,-198.71 523.59,-190.11"/>
<polygon fill="black" stroke="black" points="527.09,-190.1 523.59,-180.1 520.09,-190.1 527.09,-190.1"/>
</g>
<!-- MoveLoopFall -->
<g id="node13" class="node">
<title>MoveLoopFall</title>
<polygon fill="cyan" stroke="black" points="702.33,-154.54 702.33,-169.46 672.61,-180 630.58,-180 600.85,-169.46 600.85,-154.54 630.58,-144 672.61,-144 702.33,-154.54"/>
<text text-anchor="middle" x="651.59" y="-159.8" font-family="Times,serif" font-size="9.00">MoveLoopFall</text>
</g>
<!-- MoveSeq&#45;&gt;MoveLoopFall -->
<g id="edge12" class="edge">
<title>MoveSeq&#45;&gt;MoveLoopFall</title>
<path fill="none" stroke="black" d="M554.9,-215.88C573.09,-205.93 596.1,-193.35 615.11,-182.95"/>
<polygon fill="black" stroke="black" points="616.99,-185.91 624.08,-178.05 613.63,-179.77 616.99,-185.91"/>
</g>
<!-- SafeSeq -->
<g id="node14" class="node">
<title>SafeSeq</title>
<polygon fill="orange" stroke="black" points="628.59,-108 574.59,-108 574.59,-72 628.59,-72 628.59,-108"/>
<text text-anchor="middle" x="601.59" y="-87.8" font-family="Times,serif" font-size="9.00">SafeSeq</text>
</g>
<!-- MoveLoopFall&#45;&gt;SafeSeq -->
<g id="edge13" class="edge">
<title>MoveLoopFall&#45;&gt;SafeSeq</title>
<path fill="none" stroke="black" d="M639.23,-143.7C633.36,-135.47 626.22,-125.48 619.75,-116.42"/>
<polygon fill="black" stroke="black" points="622.47,-114.21 613.81,-108.1 616.77,-118.28 622.47,-114.21"/>
</g>
<!-- MoveToSubGoal! -->
<g id="node17" class="node">
<title>MoveToSubGoal!</title>
<ellipse fill="gray" stroke="black" cx="701.59" cy="-90" rx="54.7" ry="18"/>
<text text-anchor="middle" x="701.59" y="-87.8" font-family="Times,serif" font-size="9.00">MoveToSubGoal!</text>
</g>
<!-- MoveLoopFall&#45;&gt;MoveToSubGoal! -->
<g id="edge16" class="edge">
<title>MoveLoopFall&#45;&gt;MoveToSubGoal!</title>
<path fill="none" stroke="black" d="M663.95,-143.7C669.91,-135.35 677.17,-125.18 683.72,-116.02"/>
<polygon fill="black" stroke="black" points="686.75,-117.79 689.72,-107.62 681.06,-113.73 686.75,-117.79"/>
</g>
<!-- NotSafe? -->
<g id="node15" class="node">
<title>NotSafe?</title>
<ellipse fill="gray" stroke="black" cx="543.59" cy="-18" rx="33.47" ry="18"/>
<text text-anchor="middle" x="543.59" y="-15.8" font-family="Times,serif" font-size="9.00">NotSafe?</text>
</g>
<!-- SafeSeq&#45;&gt;NotSafe? -->
<g id="edge14" class="edge">
<title>SafeSeq&#45;&gt;NotSafe?</title>
<path fill="none" stroke="black" d="M587.25,-71.7C579.99,-62.93 571.06,-52.15 563.17,-42.63"/>
<polygon fill="black" stroke="black" points="565.65,-40.14 556.58,-34.67 560.26,-44.6 565.65,-40.14"/>
</g>
<!-- SafeMoveToSubGoal! -->
<g id="node16" class="node">
<title>SafeMoveToSubGoal!</title>
<ellipse fill="gray" stroke="black" cx="660.59" cy="-18" rx="65.64" ry="18"/>
<text text-anchor="middle" x="660.59" y="-15.8" font-family="Times,serif" font-size="9.00">SafeMoveToSubGoal!</text>
</g>
<!-- SafeSeq&#45;&gt;SafeMoveToSubGoal! -->
<g id="edge15" class="edge">
<title>SafeSeq&#45;&gt;SafeMoveToSubGoal!</title>
<path fill="none" stroke="black" d="M616.18,-71.7C623.35,-63.18 632.13,-52.76 639.98,-43.45"/>
<polygon fill="black" stroke="black" points="642.81,-45.52 646.58,-35.62 637.46,-41.01 642.81,-45.52"/>
</g>
</g>
</svg>
