<?xml version="1.0" encoding="UTF-8" standalone="no"?>
<!DOCTYPE svg PUBLIC "-//W3C//DTD SVG 1.1//EN"
 "http://www.w3.org/Graphics/SVG/1.1/DTD/svg11.dtd">
<!-- Generated by graphviz version 2.43.0 (0)
 -->
<!-- Title: pastafarianism Pages: 1 -->
<svg width="731pt" height="260pt"
 viewBox="0.00 0.00 731.19 260.00" xmlns="http://www.w3.org/2000/svg" xmlns:xlink="http://www.w3.org/1999/xlink">
<g id="graph0" class="graph" transform="scale(1 1) rotate(0) translate(4 256)">
<title>pastafarianism</title>
<polygon fill="white" stroke="transparent" points="-4,4 -4,-256 727.19,-256 727.19,4 -4,4"/>
<!-- AirTreeFall -->
<g id="node1" class="node">
<title>AirTreeFall</title>
<polygon fill="cyan" stroke="black" points="481.73,-226.54 481.73,-241.46 456.4,-252 420.58,-252 395.25,-241.46 395.25,-226.54 420.58,-216 456.4,-216 481.73,-226.54"/>
<text text-anchor="middle" x="438.49" y="-231.8" font-family="Times,serif" font-size="9.00">AirTreeFall</text>
</g>
<!-- SafeSeq -->
<g id="node2" class="node">
<title>SafeSeq</title>
<polygon fill="orange" stroke="black" points="177.49,-180 123.49,-180 123.49,-144 177.49,-144 177.49,-180"/>
<text text-anchor="middle" x="150.49" y="-159.8" font-family="Times,serif" font-size="9.00">SafeSeq</text>
</g>
<!-- AirTreeFall&#45;&gt;SafeSeq -->
<g id="edge1" class="edge">
<title>AirTreeFall&#45;&gt;SafeSeq</title>
<path fill="none" stroke="black" d="M401.13,-223.92C345.82,-210.48 242.77,-185.43 187.6,-172.02"/>
<polygon fill="black" stroke="black" points="188.42,-168.62 177.88,-169.66 186.77,-175.42 188.42,-168.62"/>
</g>
<!-- LdSeq -->
<g id="node5" class="node">
<title>LdSeq</title>
<polygon fill="orange" stroke="black" points="426.49,-180 368.49,-180 368.49,-144 426.49,-144 426.49,-180"/>
<text text-anchor="middle" x="397.49" y="-159.8" font-family="Times,serif" font-size="9.00">Ⓜ LdSeq</text>
</g>
<!-- AirTreeFall&#45;&gt;LdSeq -->
<g id="edge4" class="edge">
<title>AirTreeFall&#45;&gt;LdSeq</title>
<path fill="none" stroke="black" d="M428.35,-215.7C423.63,-207.64 417.92,-197.89 412.7,-188.98"/>
<polygon fill="black" stroke="black" points="415.58,-186.96 407.5,-180.1 409.54,-190.5 415.58,-186.96"/>
</g>
<!-- MoveSeq -->
<g id="node9" class="node">
<title>MoveSeq</title>
<polygon fill="orange" stroke="black" points="567.99,-180 496.99,-180 496.99,-144 567.99,-144 567.99,-180"/>
<text text-anchor="middle" x="532.49" y="-159.8" font-family="Times,serif" font-size="9.00">Ⓜ MoveSeq</text>
</g>
<!-- AirTreeFall&#45;&gt;MoveSeq -->
<g id="edge8" class="edge">
<title>AirTreeFall&#45;&gt;MoveSeq</title>
<path fill="none" stroke="black" d="M459.82,-217.12C472.11,-207.96 487.78,-196.29 501.42,-186.14"/>
<polygon fill="black" stroke="black" points="503.67,-188.82 509.6,-180.04 499.49,-183.21 503.67,-188.82"/>
</g>
<!-- ComputePotentialLds! -->
<g id="node14" class="node">
<title>ComputePotentialLds!</title>
<ellipse fill="gray" stroke="black" cx="654.49" cy="-162" rx="68.91" ry="18"/>
<text text-anchor="middle" x="654.49" y="-159.8" font-family="Times,serif" font-size="9.00">ComputePotentialLds!</text>
</g>
<!-- AirTreeFall&#45;&gt;ComputePotentialLds! -->
<g id="edge13" class="edge">
<title>AirTreeFall&#45;&gt;ComputePotentialLds!</title>
<path fill="none" stroke="black" d="M471.76,-222.22C506.86,-210.84 562.6,-192.78 603.29,-179.59"/>
<polygon fill="black" stroke="black" points="604.6,-182.85 613.03,-176.43 602.44,-176.19 604.6,-182.85"/>
</g>
<!-- NotSafe? -->
<g id="node3" class="node">
<title>NotSafe?</title>
<ellipse fill="gray" stroke="black" cx="33.49" cy="-90" rx="33.47" ry="18"/>
<text text-anchor="middle" x="33.49" y="-87.8" font-family="Times,serif" font-size="9.00">NotSafe?</text>
</g>
<!-- SafeSeq&#45;&gt;NotSafe? -->
<g id="edge2" class="edge">
<title>SafeSeq&#45;&gt;NotSafe?</title>
<path fill="none" stroke="black" d="M123.35,-144.76C105.48,-134.07 82.07,-120.07 63.63,-109.03"/>
<polygon fill="black" stroke="black" points="65.39,-106.01 55.01,-103.88 61.8,-112.02 65.39,-106.01"/>
</g>
<!-- SafeMoveToSubGoal! -->
<g id="node4" class="node">
<title>SafeMoveToSubGoal!</title>
<ellipse fill="gray" stroke="black" cx="150.49" cy="-90" rx="65.64" ry="18"/>
<text text-anchor="middle" x="150.49" y="-87.8" font-family="Times,serif" font-size="9.00">SafeMoveToSubGoal!</text>
</g>
<!-- SafeSeq&#45;&gt;SafeMoveToSubGoal! -->
<g id="edge3" class="edge">
<title>SafeSeq&#45;&gt;SafeMoveToSubGoal!</title>
<path fill="none" stroke="black" d="M150.49,-143.7C150.49,-135.98 150.49,-126.71 150.49,-118.11"/>
<polygon fill="black" stroke="black" points="153.99,-118.1 150.49,-108.1 146.99,-118.1 153.99,-118.1"/>
</g>
<!-- CloseToLd? -->
<g id="node6" class="node">
<title>CloseToLd?</title>
<ellipse fill="gray" stroke="black" cx="273.49" cy="-90" rx="39.02" ry="18"/>
<text text-anchor="middle" x="273.49" y="-87.8" font-family="Times,serif" font-size="9.00">CloseToLd?</text>
</g>
<!-- LdSeq&#45;&gt;CloseToLd? -->
<g id="edge5" class="edge">
<title>LdSeq&#45;&gt;CloseToLd?</title>
<path fill="none" stroke="black" d="M368.41,-144.59C349.75,-134.05 325.48,-120.35 306.15,-109.44"/>
<polygon fill="black" stroke="black" points="307.81,-106.36 297.38,-104.49 304.37,-112.45 307.81,-106.36"/>
</g>
<!-- GetNextLd! -->
<g id="node7" class="node">
<title>GetNextLd!</title>
<ellipse fill="gray" stroke="black" cx="371.49" cy="-90" rx="40.98" ry="18"/>
<text text-anchor="middle" x="371.49" y="-87.8" font-family="Times,serif" font-size="9.00">GetNextLd!</text>
</g>
<!-- LdSeq&#45;&gt;GetNextLd! -->
<g id="edge6" class="edge">
<title>LdSeq&#45;&gt;GetNextLd!</title>
<path fill="none" stroke="black" d="M391.06,-143.7C388.13,-135.81 384.6,-126.3 381.35,-117.55"/>
<polygon fill="black" stroke="black" points="384.6,-116.26 377.84,-108.1 378.04,-118.7 384.6,-116.26"/>
</g>
<!-- ReachGoal? -->
<g id="node8" class="node">
<title>ReachGoal?</title>
<ellipse fill="gray" stroke="black" cx="471.49" cy="-90" rx="40.98" ry="18"/>
<text text-anchor="middle" x="471.49" y="-87.8" font-family="Times,serif" font-size="9.00">ReachGoal?</text>
</g>
<!-- LdSeq&#45;&gt;ReachGoal? -->
<g id="edge7" class="edge">
<title>LdSeq&#45;&gt;ReachGoal?</title>
<path fill="none" stroke="black" d="M415.78,-143.7C425.33,-134.66 437.13,-123.5 447.42,-113.77"/>
<polygon fill="black" stroke="black" points="450.06,-116.09 454.92,-106.67 445.25,-111 450.06,-116.09"/>
</g>
<!-- SGFall -->
<g id="node10" class="node">
<title>SGFall</title>
<polygon fill="cyan" stroke="black" points="588.73,-82.54 588.73,-97.46 571.6,-108 547.37,-108 530.24,-97.46 530.24,-82.54 547.37,-72 571.6,-72 588.73,-82.54"/>
<text text-anchor="middle" x="559.49" y="-87.8" font-family="Times,serif" font-size="9.00">SGFall</text>
</g>
<!-- MoveSeq&#45;&gt;SGFall -->
<g id="edge9" class="edge">
<title>MoveSeq&#45;&gt;SGFall</title>
<path fill="none" stroke="black" d="M539.16,-143.7C542.2,-135.81 545.87,-126.3 549.25,-117.55"/>
<polygon fill="black" stroke="black" points="552.56,-118.69 552.89,-108.1 546.02,-116.17 552.56,-118.69"/>
</g>
<!-- MoveToSubGoal! -->
<g id="node13" class="node">
<title>MoveToSubGoal!</title>
<ellipse fill="gray" stroke="black" cx="661.49" cy="-90" rx="54.7" ry="18"/>
<text text-anchor="middle" x="661.49" y="-87.8" font-family="Times,serif" font-size="9.00">MoveToSubGoal!</text>
</g>
<!-- MoveSeq&#45;&gt;MoveToSubGoal! -->
<g id="edge12" class="edge">
<title>MoveSeq&#45;&gt;MoveToSubGoal!</title>
<path fill="none" stroke="black" d="M564.04,-143.88C582.59,-133.81 606.1,-121.05 625.38,-110.59"/>
<polygon fill="black" stroke="black" points="627.07,-113.66 634.19,-105.81 623.73,-107.51 627.07,-113.66"/>
</g>
<!-- NotReadyForSG? -->
<g id="node11" class="node">
<title>NotReadyForSG?</title>
<ellipse fill="gray" stroke="black" cx="493.49" cy="-18" rx="55.35" ry="18"/>
<text text-anchor="middle" x="493.49" y="-15.8" font-family="Times,serif" font-size="9.00">NotReadyForSG?</text>
</g>
<!-- SGFall&#45;&gt;NotReadyForSG? -->
<g id="edge10" class="edge">
<title>SGFall&#45;&gt;NotReadyForSG?</title>
<path fill="none" stroke="black" d="M544.84,-73.46C536.37,-64.48 525.52,-52.98 515.99,-42.87"/>
<polygon fill="black" stroke="black" points="518.42,-40.34 509.01,-35.47 513.33,-45.14 518.42,-40.34"/>
</g>
<!-- GenerateSubGoal! -->
<g id="node12" class="node">
<title>GenerateSubGoal!</title>
<ellipse fill="gray" stroke="black" cx="625.49" cy="-18" rx="58.78" ry="18"/>
<text text-anchor="middle" x="625.49" y="-15.8" font-family="Times,serif" font-size="9.00">GenerateSubGoal!</text>
</g>
<!-- SGFall&#45;&gt;GenerateSubGoal! -->
<g id="edge11" class="edge">
<title>SGFall&#45;&gt;GenerateSubGoal!</title>
<path fill="none" stroke="black" d="M574.13,-73.46C582.61,-64.48 593.45,-52.98 602.98,-42.87"/>
<polygon fill="black" stroke="black" points="605.65,-45.14 609.96,-35.47 600.55,-40.34 605.65,-45.14"/>
</g>
</g>
</svg>
